<?xml version="1.0" encoding="UTF-8"?><svg xmlns="http://www.w3.org/2000/svg" xmlns:xlink="http://www.w3.org/1999/xlink" height="238.0" preserveAspectRatio="xMidYMid meet" version="1.0" viewBox="63.1 93.6 298.9 238.0" width="298.9" zoomAndPan="magnify"><g><g id="change1_1"><path d="M 332.839844 172.152344 L 283.277344 221.714844 L 233.71875 172.152344 L 283.277344 122.59375 L 332.839844 172.152344" fill="#fab946"/></g><g id="change1_2"><path d="M 328.808594 155.992188 L 333.070312 121.8125 L 299.339844 129.363281 Z M 328.808594 155.992188" fill="#fab946"/></g><g id="change1_3"><path d="M 303.101562 121.742188 L 283.222656 93.609375 L 263.382812 121.914062 L 283.105469 113.570312 L 303.101562 121.742188" fill="#fab946"/></g><g id="change1_4"><path d="M 232.554688 152.570312 L 204.421875 172.449219 L 232.726562 192.289062 L 224.382812 172.566406 L 232.554688 152.570312" fill="#fab946"/></g><g id="change1_5"><path d="M 333.929688 152.570312 L 362.0625 172.449219 L 333.757812 192.289062 L 342.101562 172.566406 L 333.929688 152.570312" fill="#fab946"/></g><g id="change1_6"><path d="M 237.746094 155.992188 L 232.179688 122 L 266.175781 128.257812 Z M 237.746094 155.992188" fill="#fab946"/></g><g id="change1_7"><path d="M 327.945312 187.851562 L 335.230469 221.515625 L 300.964844 216.992188 Z M 327.945312 187.851562" fill="#fab946"/></g><g id="change2_1"><path d="M 283.277344 122.59375 L 283.203125 122.667969 L 283.203125 221.636719 L 283.277344 221.714844 L 332.839844 172.152344 L 283.277344 122.59375" fill="#f9a731"/></g><g id="change3_1"><path d="M 324.53125 239.71875 L 254.488281 169.675781 L 185.460938 238.703125 L 218.703125 271.945312 L 205.25 285.398438 L 251.4375 331.589844 L 296.964844 286.070312 L 287.570312 276.679688 L 324.53125 239.71875" fill="#68c1ee"/></g><g id="change4_1"><path d="M 202.210938 240.734375 L 132.167969 170.691406 L 63.140625 239.71875 L 93.84375 270.425781 L 78.871094 285.398438 L 125.058594 331.589844 L 170.578125 286.070312 L 163.726562 279.21875 L 202.210938 240.734375" fill="#8dd2f4"/></g><g id="change5_1"><path d="M 269.546875 229.230469 L 189.015625 309.761719 L 107.296875 228.042969 L 187.828125 147.511719 L 269.546875 229.230469" fill="#2f93d3"/></g></g></svg>