<?xml version="1.0" encoding="UTF-8"?><svg xmlns="http://www.w3.org/2000/svg" xmlns:xlink="http://www.w3.org/1999/xlink" height="246.0" preserveAspectRatio="xMidYMid meet" version="1.0" viewBox="61.9 89.6 301.4 246.0" width="301.4" zoomAndPan="magnify"><g><g id="change1_1"><path d="M 252.144531 89.59375 C 262.835938 107.046875 268.683594 127.3125 268.683594 148.019531 C 268.683594 177.523438 256.820312 206.144531 235.972656 226.992188 C 215.121094 247.847656 186.5 259.707031 156.996094 259.707031 C 145.820312 259.707031 134.769531 258 124.21875 254.753906 C 141.523438 301.9375 186.839844 335.605469 240.023438 335.605469 C 308.121094 335.605469 363.324219 280.402344 363.324219 212.304688 C 363.324219 148.296875 314.550781 95.683594 252.144531 89.59375" fill="#9569b3"/></g><g id="change2_1"><path d="M 282.492188 182.921875 L 223.375 123.800781 L 165.113281 182.0625 L 193.171875 210.121094 L 181.816406 221.476562 L 220.800781 260.460938 L 259.222656 222.039062 L 251.296875 214.113281 L 282.492188 182.921875" fill="#68c1ee"/></g><g id="change3_1"><path d="M 179.253906 183.777344 L 120.136719 124.65625 L 61.875 182.921875 L 87.789062 208.835938 L 75.152344 221.476562 L 114.132812 260.460938 L 152.554688 222.039062 L 146.769531 216.257812 L 179.253906 183.777344" fill="#8dd2f4"/></g><g id="change4_1"><path d="M 236.082031 174.066406 L 168.113281 242.035156 L 99.144531 173.0625 L 167.113281 105.09375 L 236.082031 174.066406" fill="#2f93d3"/></g></g></svg>