<?xml version="1.0" encoding="UTF-8"?><svg xmlns="http://www.w3.org/2000/svg" xmlns:xlink="http://www.w3.org/1999/xlink" height="269.7" preserveAspectRatio="xMidYMid meet" version="1.0" viewBox="76.9 79.4 271.4 269.7" width="271.4" zoomAndPan="magnify"><g><g id="change1_1"><path d="M 273.351562 79.4375 C 280.558594 91.207031 284.503906 104.871094 284.503906 118.828125 C 284.503906 138.722656 276.503906 158.019531 262.445312 172.074219 C 248.390625 186.132812 229.09375 194.132812 209.199219 194.132812 C 201.664062 194.132812 194.214844 192.980469 187.105469 190.789062 C 198.769531 222.605469 229.320312 245.304688 265.179688 245.304688 C 311.089844 245.304688 348.3125 208.085938 348.3125 162.171875 C 348.3125 119.019531 315.429688 83.546875 273.351562 79.4375" fill="#9569b3"/></g><g id="change2_1"><path d="M 257.414062 160.195312 L 241.496094 154.746094 L 225.355469 160.195312 L 229.464844 144.164062 L 225.355469 128.136719 L 241.496094 133.140625 L 257.414062 128.136719 L 254.082031 143.71875 L 257.414062 160.195312" fill="#f9a731"/></g><g id="change3_1"><path d="M 241.382812 166.835938 L 233.984375 151.726562 L 218.714844 144.164062 L 232.957031 135.738281 L 241.382812 121.496094 L 249.257812 136.449219 L 264.054688 144.164062 L 250.679688 152.828125 L 241.382812 166.835938" fill="#fab946"/></g><g id="change2_2"><path d="M 231.773438 117.847656 L 224.113281 115.226562 L 216.34375 117.847656 L 218.320312 110.132812 L 216.34375 102.417969 L 224.113281 104.824219 L 231.773438 102.417969 L 230.171875 109.917969 L 231.773438 117.847656" fill="#f9a731"/></g><g id="change3_2"><path d="M 224.058594 121.046875 L 220.496094 113.773438 L 213.144531 110.132812 L 220.003906 106.074219 L 224.058594 99.222656 L 227.847656 106.417969 L 234.972656 110.132812 L 228.53125 114.304688 L 224.058594 121.046875" fill="#fab946"/></g><g id="change4_1"><path d="M 345.1875 254.828125 L 273.289062 182.933594 L 202.441406 253.785156 L 236.5625 287.90625 L 222.753906 301.714844 L 270.160156 349.128906 L 316.886719 302.402344 L 307.246094 292.765625 L 345.1875 254.828125" fill="#68c1ee"/></g><g id="change5_1"><path d="M 219.632812 255.867188 L 147.738281 183.976562 L 76.886719 254.828125 L 108.40625 286.34375 L 93.03125 301.714844 L 140.441406 349.128906 L 187.164062 302.402344 L 180.132812 295.367188 L 219.632812 255.867188" fill="#8dd2f4"/></g><g id="change6_1"><path d="M 288.746094 244.0625 L 206.089844 326.71875 L 122.210938 242.84375 L 204.871094 160.183594 L 288.746094 244.0625" fill="#2f93d3"/></g></g></svg>