<?xml version="1.0" encoding="UTF-8"?><svg xmlns="http://www.w3.org/2000/svg" xmlns:xlink="http://www.w3.org/1999/xlink" height="312.0" preserveAspectRatio="xMidYMid meet" version="1.0" viewBox="73.1 56.6 278.9 312.0" width="278.9" zoomAndPan="magnify"><g><g id="change1_1"><path d="M 207.515625 138.777344 L 155.65625 190.636719 L 103.800781 138.777344 L 155.65625 86.921875 L 207.515625 138.777344" fill="#fab946"/></g><g id="change1_2"><path d="M 203.296875 121.871094 L 207.757812 86.105469 L 172.460938 94.007812 Z M 203.296875 121.871094" fill="#fab946"/></g><g id="change1_3"><path d="M 176.394531 86.03125 L 155.597656 56.597656 L 134.839844 86.210938 L 155.472656 77.480469 L 176.394531 86.03125" fill="#fab946"/></g><g id="change1_4"><path d="M 176.394531 192.105469 L 155.597656 221.539062 L 134.839844 191.925781 L 155.472656 200.65625 L 176.394531 192.105469" fill="#fab946"/></g><g id="change1_5"><path d="M 102.582031 118.289062 L 73.148438 139.089844 L 102.761719 159.847656 L 94.03125 139.214844 L 102.582031 118.289062" fill="#fab946"/></g><g id="change1_6"><path d="M 208.652344 118.289062 L 238.089844 139.089844 L 208.476562 159.847656 L 217.203125 139.214844 L 208.652344 118.289062" fill="#fab946"/></g><g id="change1_7"><path d="M 108.015625 121.871094 L 102.1875 86.304688 L 137.757812 92.847656 Z M 108.015625 121.871094" fill="#fab946"/></g><g id="change1_8"><path d="M 202.394531 155.203125 L 210.015625 190.429688 L 174.160156 185.695312 Z M 202.394531 155.203125" fill="#fab946"/></g><g id="change1_9"><path d="M 110.539062 155.203125 L 103.652344 190.578125 L 139.402344 185.105469 Z M 110.539062 155.203125" fill="#fab946"/></g><g id="change2_1"><path d="M 155.65625 86.921875 L 155.578125 87 L 155.578125 190.558594 L 155.65625 190.636719 L 207.515625 138.777344 L 155.65625 86.921875" fill="#f9a731"/></g><g id="change3_1"><path d="M 352.054688 192.488281 L 283.359375 123.796875 L 215.664062 191.492188 L 248.269531 224.097656 L 235.074219 237.289062 L 280.371094 282.589844 L 325.015625 237.949219 L 315.804688 228.738281 L 352.054688 192.488281" fill="#68c1ee"/></g><g id="change4_1"><path d="M 232.09375 193.484375 L 163.398438 124.789062 L 95.703125 192.488281 L 125.816406 222.605469 L 111.132812 237.289062 L 156.425781 282.589844 L 201.070312 237.949219 L 194.347656 231.226562 L 232.09375 193.484375" fill="#8dd2f4"/></g><g id="change5_1"><path d="M 298.128906 182.199219 L 219.152344 261.179688 L 139.011719 181.039062 L 217.988281 102.058594 L 298.128906 182.199219" fill="#2f93d3"/></g><g id="change3_2"><path d="M 153.753906 300.40625 L 142.246094 311.914062 L 130.746094 300.40625 L 142.246094 288.902344 L 153.753906 300.40625" fill="#68c1ee"/></g><g id="change3_3"><path d="M 233.460938 287.964844 L 221.957031 299.46875 L 210.445312 287.964844 L 221.957031 276.457031 L 233.460938 287.964844" fill="#68c1ee"/></g><g id="change3_4"><path d="M 309.042969 301.402344 L 297.539062 312.90625 L 286.03125 301.402344 L 297.539062 289.898438 L 309.042969 301.402344" fill="#68c1ee"/></g><g id="change3_5"><path d="M 225.054688 358.878906 L 215.328125 368.605469 L 205.601562 358.878906 L 215.328125 349.152344 L 225.054688 358.878906" fill="#68c1ee"/></g><g id="change3_6"><path d="M 190.617188 323.085938 L 181.664062 332.035156 L 172.714844 323.085938 L 181.664062 314.132812 L 190.617188 323.085938" fill="#68c1ee"/></g><g id="change3_7"><path d="M 264.191406 320.234375 L 255.242188 329.1875 L 246.289062 320.234375 L 255.242188 311.28125 L 264.191406 320.234375" fill="#68c1ee"/></g></g></svg>