<?xml version="1.0" encoding="UTF-8"?><svg xmlns="http://www.w3.org/2000/svg" xmlns:xlink="http://www.w3.org/1999/xlink" height="282.7" preserveAspectRatio="xMidYMid meet" version="1.0" viewBox="100.8 71.3 223.6 282.7" width="223.6" zoomAndPan="magnify"><g><g id="change1_1"><path d="M 324.378906 150.125 L 264.472656 90.21875 L 205.4375 149.257812 L 233.871094 177.6875 L 222.363281 189.195312 L 261.867188 228.699219 L 300.800781 189.769531 L 292.769531 181.734375 L 324.378906 150.125" fill="#68c1ee"/></g><g id="change2_1"><path d="M 219.761719 150.992188 L 159.859375 91.085938 L 100.820312 150.125 L 127.082031 176.386719 L 114.273438 189.195312 L 153.777344 228.699219 L 192.710938 189.769531 L 186.847656 183.90625 L 219.761719 150.992188" fill="#8dd2f4"/></g><g id="change3_1"><path d="M 277.351562 141.152344 L 208.476562 210.027344 L 138.585938 140.140625 L 207.464844 71.261719 L 277.351562 141.152344" fill="#2f93d3"/></g><g id="change1_2"><path d="M 149.871094 254.019531 L 139.835938 264.050781 L 129.804688 254.019531 L 139.835938 243.984375 L 149.871094 254.019531" fill="#68c1ee"/></g><g id="change1_3"><path d="M 219.378906 243.164062 L 209.347656 253.199219 L 199.3125 243.164062 L 209.347656 233.132812 L 219.378906 243.164062" fill="#68c1ee"/></g><g id="change1_4"><path d="M 285.292969 254.886719 L 275.261719 264.921875 L 265.226562 254.886719 L 275.261719 244.851562 L 285.292969 254.886719" fill="#68c1ee"/></g><g id="change1_5"><path d="M 212.046875 305.011719 L 203.566406 313.488281 L 195.082031 305.011719 L 203.566406 296.527344 L 212.046875 305.011719" fill="#68c1ee"/></g><g id="change1_6"><path d="M 178.546875 273.792969 L 170.738281 281.601562 L 162.933594 273.792969 L 170.738281 265.984375 L 178.546875 273.792969" fill="#68c1ee"/></g><g id="change1_7"><path d="M 248.390625 273.203125 L 240.582031 281.011719 L 232.773438 273.203125 L 240.582031 265.394531 L 248.390625 273.203125" fill="#68c1ee"/></g><g id="change1_8"><path d="M 254.46875 312.851562 L 246.660156 320.65625 L 238.851562 312.851562 L 246.660156 305.042969 L 254.46875 312.851562" fill="#68c1ee"/></g><g id="change1_9"><path d="M 168.515625 314.296875 L 160.707031 322.105469 L 152.902344 314.296875 L 160.707031 306.488281 L 168.515625 314.296875" fill="#68c1ee"/></g><g id="change1_10"><path d="M 210.480469 346.128906 L 202.671875 353.9375 L 194.867188 346.128906 L 202.671875 338.324219 L 210.480469 346.128906" fill="#68c1ee"/></g></g></svg>