<?xml version="1.0" encoding="UTF-8"?><svg xmlns="http://www.w3.org/2000/svg" xmlns:xlink="http://www.w3.org/1999/xlink" height="278.3" preserveAspectRatio="xMidYMid meet" version="1.0" viewBox="71.2 73.4 282.9 278.3" width="282.9" zoomAndPan="magnify"><g><g id="change1_1"><path d="M 350.449219 167.554688 L 278.957031 96.0625 L 208.503906 166.519531 L 242.4375 200.449219 L 228.703125 214.183594 L 275.847656 261.324219 L 322.308594 214.863281 L 312.722656 205.28125 L 350.449219 167.554688" fill="#68c1ee"/></g><g id="change2_1"><path d="M 225.597656 168.59375 L 154.109375 97.101562 L 83.65625 167.554688 L 114.996094 198.894531 L 99.707031 214.183594 L 146.851562 261.324219 L 193.3125 214.863281 L 186.316406 207.871094 L 225.597656 168.59375" fill="#8dd2f4"/></g><g id="change3_1"><path d="M 294.324219 156.847656 L 212.132812 239.046875 L 128.726562 155.640625 L 210.921875 73.441406 L 294.324219 156.847656" fill="#2f93d3"/></g><g id="change1_2"><path d="M 217.726562 280.214844 C 217.722656 280.214844 217.71875 280.214844 217.71875 280.214844 L 214.582031 280.226562 C 215.308594 279.109375 215.925781 278.160156 216.054688 277.964844 C 216.71875 276.988281 216.617188 275.648438 215.753906 274.785156 C 214.777344 273.8125 213.191406 273.8125 212.21875 274.785156 C 212.042969 274.960938 212.019531 274.992188 208.605469 280.253906 L 192.382812 280.316406 L 201.613281 267.117188 L 208.355469 266.796875 C 209.734375 266.730469 210.800781 265.558594 210.730469 264.179688 C 210.664062 262.800781 209.523438 261.742188 208.113281 261.804688 L 205.234375 261.941406 L 206.421875 260.246094 C 207.210938 259.113281 206.9375 257.554688 205.804688 256.765625 C 204.675781 255.976562 203.113281 256.25 202.320312 257.382812 L 201.105469 259.125 C 200.605469 257.816406 200.179688 256.6875 200.09375 256.457031 C 199.703125 255.355469 198.578125 254.640625 197.382812 254.8125 C 196.015625 255.007812 195.0625 256.273438 195.257812 257.640625 C 195.296875 257.902344 195.304688 257.929688 197.636719 264.082031 L 187.21875 278.976562 L 175.328125 265.335938 L 176.640625 258.714844 C 176.90625 257.359375 176.027344 256.046875 174.671875 255.777344 C 173.320312 255.507812 172.003906 256.390625 171.734375 257.742188 L 171.175781 260.570312 L 169.816406 259.015625 C 168.910156 257.972656 167.328125 257.867188 166.289062 258.773438 C 165.246094 259.679688 165.140625 261.257812 166.046875 262.300781 L 167.445312 263.902344 C 166.050781 264.070312 164.84375 264.214844 164.605469 264.242188 C 163.414062 264.359375 162.445312 265.320312 162.355469 266.554688 C 162.257812 267.929688 163.296875 269.128906 164.671875 269.226562 C 164.703125 269.226562 164.726562 269.230469 164.761719 269.230469 C 165.007812 269.230469 165.757812 269.140625 171.421875 268.464844 L 181.792969 280.359375 L 166.105469 280.421875 L 161.957031 275.101562 C 161.105469 274.011719 159.535156 273.816406 158.445312 274.664062 C 157.359375 275.515625 157.164062 277.085938 158.011719 278.175781 L 159.785156 280.449219 L 157.71875 280.457031 C 156.335938 280.460938 155.222656 281.585938 155.226562 282.96875 C 155.234375 284.34375 156.351562 285.457031 157.726562 285.457031 C 157.730469 285.457031 157.734375 285.457031 157.738281 285.457031 L 159.867188 285.449219 C 159.082031 286.613281 158.398438 287.621094 158.265625 287.816406 C 157.574219 288.792969 157.664062 290.152344 158.539062 291.027344 C 159.027344 291.515625 159.667969 291.761719 160.308594 291.761719 C 160.949219 291.761719 161.585938 291.515625 162.074219 291.027344 C 162.238281 290.863281 162.253906 290.847656 165.917969 285.425781 L 182.757812 285.355469 L 173.425781 298.695312 L 166.378906 299.164062 C 165 299.253906 163.960938 300.445312 164.050781 301.824219 C 164.140625 303.203125 165.34375 304.246094 166.710938 304.152344 L 169.75 303.949219 L 167.933594 306.546875 C 167.144531 307.679688 167.417969 309.238281 168.550781 310.027344 C 168.988281 310.335938 169.488281 310.480469 169.980469 310.480469 C 170.769531 310.480469 171.546875 310.109375 172.03125 309.414062 L 173.828125 306.84375 C 174.320312 308.074219 174.742188 309.121094 174.832031 309.347656 C 175.191406 310.316406 176.125 310.976562 177.171875 310.976562 C 177.289062 310.976562 177.40625 310.96875 177.527344 310.949219 C 178.894531 310.753906 179.84375 309.488281 179.648438 308.121094 C 179.609375 307.84375 179.597656 307.800781 177.253906 301.949219 L 187.648438 287.082031 L 199.179688 300.304688 L 197.933594 307.257812 C 197.691406 308.613281 198.597656 309.914062 199.953125 310.15625 C 200.105469 310.183594 200.253906 310.195312 200.398438 310.195312 C 201.585938 310.195312 202.640625 309.347656 202.855469 308.136719 L 203.394531 305.136719 L 205.476562 307.523438 C 205.96875 308.09375 206.660156 308.382812 207.359375 308.382812 C 207.941406 308.382812 208.527344 308.179688 209.003906 307.765625 C 210.042969 306.859375 210.148438 305.28125 209.242188 304.238281 L 207.183594 301.878906 C 208.503906 301.695312 209.628906 301.539062 209.859375 301.507812 C 211.03125 301.375 211.980469 300.421875 212.066406 299.203125 C 212.164062 297.824219 211.128906 296.628906 209.75 296.53125 C 209.503906 296.511719 209.460938 296.515625 203.257812 297.371094 L 192.742188 285.316406 L 208.15625 285.253906 L 212.601562 290.742188 C 213.09375 291.351562 213.816406 291.667969 214.546875 291.667969 C 215.097656 291.667969 215.652344 291.488281 216.113281 291.113281 C 217.1875 290.242188 217.355469 288.667969 216.484375 287.597656 L 214.566406 285.226562 L 217.734375 285.214844 C 219.117188 285.210938 220.230469 284.085938 220.226562 282.703125 C 220.222656 281.328125 219.105469 280.214844 217.726562 280.214844" fill="#68c1ee"/></g><g id="change2_2"><path d="M 289.148438 308.71875 C 289.144531 308.71875 289.144531 308.71875 289.144531 308.71875 L 286.746094 308.726562 C 287.300781 307.871094 287.773438 307.144531 287.871094 306.996094 C 288.378906 306.253906 288.304688 305.230469 287.644531 304.566406 C 286.894531 303.820312 285.6875 303.820312 284.941406 304.566406 C 284.808594 304.703125 284.785156 304.726562 282.183594 308.742188 L 269.785156 308.796875 L 276.839844 298.710938 L 281.988281 298.464844 C 283.042969 298.414062 283.855469 297.519531 283.804688 296.464844 C 283.757812 295.410156 282.882812 294.601562 281.808594 294.648438 L 279.605469 294.753906 L 280.511719 293.457031 C 281.113281 292.59375 280.902344 291.402344 280.039062 290.796875 C 279.179688 290.195312 277.984375 290.402344 277.382812 291.269531 L 276.445312 292.601562 C 276.066406 291.605469 275.742188 290.738281 275.675781 290.5625 C 275.378906 289.722656 274.519531 289.175781 273.605469 289.308594 C 272.558594 289.457031 271.835938 290.425781 271.980469 291.46875 C 272.011719 291.667969 272.015625 291.6875 273.800781 296.390625 L 265.839844 307.769531 L 256.753906 297.347656 L 257.753906 292.289062 C 257.960938 291.253906 257.285156 290.25 256.253906 290.042969 C 255.21875 289.835938 254.210938 290.511719 254.007812 291.546875 L 253.578125 293.707031 L 252.539062 292.515625 C 251.847656 291.722656 250.640625 291.640625 249.847656 292.332031 C 249.050781 293.023438 248.96875 294.230469 249.660156 295.027344 L 250.730469 296.253906 C 249.660156 296.382812 248.738281 296.492188 248.5625 296.511719 C 247.648438 296.601562 246.90625 297.335938 246.84375 298.277344 C 246.765625 299.328125 247.558594 300.242188 248.609375 300.320312 C 248.632812 300.320312 248.652344 300.320312 248.679688 300.320312 C 248.867188 300.320312 249.4375 300.257812 253.769531 299.738281 L 261.691406 308.828125 L 249.707031 308.875 L 246.535156 304.808594 C 245.886719 303.976562 244.6875 303.828125 243.855469 304.476562 C 243.019531 305.125 242.871094 306.324219 243.519531 307.15625 L 244.878906 308.894531 L 243.296875 308.898438 C 242.242188 308.90625 241.390625 309.765625 241.394531 310.820312 C 241.398438 311.871094 242.253906 312.722656 243.304688 312.722656 C 243.308594 312.722656 243.3125 312.722656 243.3125 312.722656 L 244.9375 312.714844 C 244.339844 313.605469 243.816406 314.375 243.714844 314.523438 C 243.1875 315.269531 243.257812 316.3125 243.925781 316.980469 C 244.296875 317.351562 244.785156 317.539062 245.273438 317.539062 C 245.765625 317.539062 246.253906 317.351562 246.628906 316.980469 C 246.75 316.855469 246.765625 316.839844 249.5625 312.695312 L 262.429688 312.644531 L 255.300781 322.839844 L 249.914062 323.195312 C 248.859375 323.265625 248.066406 324.175781 248.136719 325.226562 C 248.203125 326.28125 249.121094 327.078125 250.167969 327.007812 L 252.492188 326.851562 L 251.105469 328.839844 C 250.5 329.703125 250.710938 330.894531 251.574219 331.496094 C 251.90625 331.730469 252.289062 331.84375 252.667969 331.84375 C 253.269531 331.84375 253.863281 331.558594 254.234375 331.027344 L 255.605469 329.0625 C 255.984375 330.003906 256.304688 330.804688 256.371094 330.976562 C 256.644531 331.71875 257.359375 332.222656 258.160156 332.222656 C 258.25 332.222656 258.34375 332.214844 258.433594 332.199219 C 259.476562 332.050781 260.203125 331.085938 260.054688 330.039062 C 260.023438 329.828125 260.015625 329.792969 258.226562 325.320312 L 266.171875 313.964844 L 274.976562 324.066406 L 274.023438 329.378906 C 273.839844 330.414062 274.53125 331.410156 275.570312 331.59375 C 275.683594 331.613281 275.796875 331.625 275.90625 331.625 C 276.816406 331.625 277.621094 330.976562 277.785156 330.050781 L 278.195312 327.761719 L 279.789062 329.585938 C 280.164062 330.019531 280.695312 330.238281 281.230469 330.238281 C 281.675781 330.238281 282.121094 330.085938 282.484375 329.769531 C 283.277344 329.074219 283.359375 327.867188 282.667969 327.074219 L 281.09375 325.269531 C 282.105469 325.128906 282.960938 325.011719 283.140625 324.984375 C 284.03125 324.882812 284.757812 324.15625 284.824219 323.226562 C 284.898438 322.171875 284.105469 321.257812 283.054688 321.183594 C 282.867188 321.167969 282.835938 321.171875 278.09375 321.824219 L 270.0625 312.613281 L 281.839844 312.566406 L 285.230469 316.761719 C 285.609375 317.226562 286.160156 317.46875 286.71875 317.46875 C 287.140625 317.46875 287.5625 317.328125 287.921875 317.042969 C 288.738281 316.378906 288.863281 315.175781 288.199219 314.355469 L 286.734375 312.546875 L 289.15625 312.535156 C 290.214844 312.53125 291.0625 311.675781 291.0625 310.617188 C 291.058594 309.566406 290.199219 308.71875 289.148438 308.71875" fill="#8dd2f4"/></g><g id="change1_3"><path d="M 159.859375 336.242188 C 159.859375 336.242188 159.855469 336.242188 159.855469 336.242188 L 158.273438 336.25 C 158.640625 335.683594 158.949219 335.207031 159.015625 335.105469 C 159.351562 334.613281 159.300781 333.9375 158.863281 333.503906 C 158.371094 333.011719 157.574219 333.011719 157.082031 333.503906 C 156.992188 333.59375 156.980469 333.609375 155.257812 336.261719 L 147.078125 336.292969 L 151.730469 329.636719 L 155.132812 329.472656 C 155.828125 329.441406 156.363281 328.851562 156.332031 328.152344 C 156.300781 327.460938 155.722656 326.925781 155.011719 326.957031 L 153.558594 327.023438 L 154.15625 326.167969 C 154.554688 325.601562 154.417969 324.8125 153.847656 324.414062 C 153.277344 324.015625 152.488281 324.152344 152.089844 324.726562 L 151.476562 325.605469 C 151.226562 324.945312 151.007812 324.375 150.964844 324.257812 C 150.769531 323.703125 150.199219 323.34375 149.597656 323.429688 C 148.90625 323.527344 148.429688 324.167969 148.527344 324.855469 C 148.546875 324.988281 148.550781 325 149.726562 328.105469 L 144.472656 335.617188 L 138.472656 328.738281 L 139.136719 325.398438 C 139.269531 324.714844 138.824219 324.050781 138.144531 323.914062 C 137.460938 323.777344 136.796875 324.226562 136.660156 324.90625 L 136.378906 326.335938 L 135.691406 325.546875 C 135.234375 325.023438 134.4375 324.96875 133.914062 325.425781 C 133.390625 325.882812 133.335938 326.679688 133.792969 327.207031 L 134.496094 328.015625 C 133.792969 328.101562 133.183594 328.171875 133.066406 328.1875 C 132.464844 328.242188 131.976562 328.730469 131.929688 329.351562 C 131.882812 330.046875 132.402344 330.648438 133.097656 330.699219 C 133.113281 330.699219 133.125 330.699219 133.144531 330.699219 C 133.269531 330.699219 133.644531 330.65625 136.503906 330.316406 L 141.734375 336.316406 L 133.820312 336.347656 L 131.730469 333.660156 C 131.300781 333.113281 130.507812 333.015625 129.957031 333.441406 C 129.410156 333.871094 129.3125 334.664062 129.738281 335.214844 L 130.632812 336.359375 L 129.589844 336.363281 C 128.894531 336.367188 128.332031 336.933594 128.335938 337.628906 C 128.335938 338.324219 128.902344 338.886719 129.597656 338.886719 C 129.597656 338.886719 129.601562 338.886719 129.601562 338.886719 L 130.675781 338.882812 C 130.277344 339.46875 129.933594 339.976562 129.867188 340.074219 C 129.519531 340.566406 129.566406 341.253906 130.003906 341.695312 C 130.25 341.941406 130.574219 342.066406 130.898438 342.066406 C 131.21875 342.066406 131.542969 341.941406 131.789062 341.695312 C 131.871094 341.613281 131.878906 341.605469 133.726562 338.867188 L 142.222656 338.835938 L 137.515625 345.5625 L 133.960938 345.800781 C 133.265625 345.847656 132.738281 346.445312 132.785156 347.140625 C 132.832031 347.835938 133.4375 348.363281 134.125 348.316406 L 135.660156 348.214844 L 134.746094 349.523438 C 134.34375 350.09375 134.484375 350.882812 135.054688 351.28125 C 135.273438 351.433594 135.527344 351.507812 135.777344 351.507812 C 136.175781 351.507812 136.566406 351.320312 136.8125 350.96875 L 137.71875 349.675781 C 137.964844 350.292969 138.175781 350.824219 138.222656 350.9375 C 138.402344 351.425781 138.875 351.757812 139.402344 351.757812 C 139.460938 351.757812 139.523438 351.753906 139.582031 351.746094 C 140.273438 351.644531 140.75 351.007812 140.652344 350.316406 C 140.632812 350.179688 140.628906 350.15625 139.445312 347.203125 L 144.691406 339.707031 L 150.503906 346.375 L 149.875 349.882812 C 149.753906 350.566406 150.210938 351.222656 150.894531 351.34375 C 150.972656 351.359375 151.046875 351.363281 151.121094 351.363281 C 151.71875 351.363281 152.25 350.9375 152.359375 350.324219 L 152.628906 348.8125 L 153.679688 350.019531 C 153.929688 350.304688 154.28125 350.449219 154.632812 350.449219 C 154.925781 350.449219 155.21875 350.347656 155.460938 350.140625 C 155.984375 349.683594 156.039062 348.886719 155.582031 348.359375 L 154.542969 347.167969 C 155.207031 347.074219 155.773438 346.996094 155.890625 346.980469 C 156.484375 346.914062 156.960938 346.433594 157.003906 345.820312 C 157.054688 345.125 156.53125 344.519531 155.835938 344.472656 C 155.710938 344.464844 155.691406 344.464844 152.5625 344.894531 L 147.257812 338.816406 L 155.03125 338.78125 L 157.273438 341.550781 C 157.523438 341.859375 157.886719 342.019531 158.253906 342.019531 C 158.535156 342.019531 158.8125 341.929688 159.046875 341.738281 C 159.589844 341.300781 159.671875 340.507812 159.234375 339.964844 L 158.265625 338.769531 L 159.863281 338.765625 C 160.5625 338.761719 161.125 338.195312 161.121094 337.496094 C 161.117188 336.804688 160.554688 336.242188 159.859375 336.242188" fill="#68c1ee"/></g><g id="change1_4"><path d="M 352.769531 246.710938 L 351.1875 246.71875 C 351.554688 246.152344 351.863281 245.671875 351.929688 245.574219 C 352.265625 245.082031 352.214844 244.40625 351.777344 243.972656 C 351.285156 243.480469 350.484375 243.480469 349.992188 243.972656 C 349.90625 244.058594 349.894531 244.074219 348.171875 246.730469 L 339.988281 246.761719 L 344.644531 240.105469 L 348.046875 239.941406 C 348.738281 239.90625 349.277344 239.316406 349.242188 238.621094 C 349.210938 237.925781 348.636719 237.394531 347.925781 237.421875 L 346.472656 237.492188 L 347.070312 236.636719 C 347.46875 236.066406 347.328125 235.28125 346.757812 234.882812 C 346.1875 234.484375 345.402344 234.621094 345.003906 235.191406 L 344.386719 236.070312 C 344.136719 235.414062 343.921875 234.84375 343.878906 234.726562 C 343.683594 234.171875 343.113281 233.8125 342.511719 233.898438 C 341.820312 233.996094 341.34375 234.636719 341.4375 235.324219 C 341.460938 235.457031 341.460938 235.46875 342.640625 238.570312 L 337.382812 246.085938 L 331.386719 239.203125 L 332.046875 235.867188 C 332.183594 235.183594 331.738281 234.519531 331.054688 234.382812 C 330.371094 234.246094 329.710938 234.691406 329.570312 235.375 L 329.289062 236.800781 L 328.605469 236.015625 C 328.148438 235.492188 327.351562 235.4375 326.824219 235.894531 C 326.300781 236.351562 326.246094 237.148438 326.703125 237.675781 L 327.410156 238.480469 C 326.703125 238.566406 326.097656 238.640625 325.980469 238.652344 C 325.378906 238.710938 324.890625 239.195312 324.84375 239.816406 C 324.792969 240.515625 325.316406 241.117188 326.011719 241.167969 C 326.023438 241.167969 326.039062 241.167969 326.058594 241.167969 C 326.183594 241.167969 326.558594 241.125 329.414062 240.78125 L 334.644531 246.78125 L 326.734375 246.8125 L 324.640625 244.128906 C 324.214844 243.578125 323.421875 243.480469 322.871094 243.910156 C 322.320312 244.339844 322.226562 245.132812 322.652344 245.679688 L 323.546875 246.828125 L 322.503906 246.832031 C 321.808594 246.835938 321.242188 247.402344 321.246094 248.097656 C 321.25 248.792969 321.8125 249.355469 322.507812 249.355469 C 322.511719 249.355469 322.511719 249.355469 322.515625 249.355469 L 323.589844 249.351562 C 323.1875 249.9375 322.847656 250.445312 322.777344 250.542969 C 322.429688 251.035156 322.476562 251.722656 322.917969 252.164062 C 323.164062 252.410156 323.484375 252.53125 323.808594 252.53125 C 324.132812 252.53125 324.453125 252.410156 324.699219 252.164062 C 324.78125 252.082031 324.789062 252.070312 326.640625 249.335938 L 335.132812 249.304688 L 330.429688 256.03125 L 326.871094 256.269531 C 326.179688 256.3125 325.648438 256.914062 325.695312 257.609375 C 325.742188 258.304688 326.351562 258.828125 327.039062 258.785156 L 328.570312 258.683594 L 327.65625 259.992188 C 327.257812 260.5625 327.394531 261.347656 327.96875 261.746094 C 328.1875 261.902344 328.4375 261.976562 328.6875 261.976562 C 329.085938 261.976562 329.480469 261.789062 329.722656 261.4375 L 330.628906 260.144531 C 330.878906 260.761719 331.089844 261.289062 331.136719 261.402344 C 331.316406 261.894531 331.785156 262.226562 332.316406 262.226562 C 332.375 262.226562 332.4375 262.222656 332.496094 262.214844 C 333.183594 262.113281 333.664062 261.476562 333.5625 260.785156 C 333.546875 260.644531 333.539062 260.625 332.355469 257.671875 L 337.601562 250.171875 L 343.414062 256.84375 L 342.789062 260.351562 C 342.664062 261.035156 343.121094 261.6875 343.808594 261.8125 C 343.882812 261.824219 343.957031 261.832031 344.03125 261.832031 C 344.632812 261.832031 345.160156 261.402344 345.269531 260.792969 L 345.542969 259.28125 L 346.59375 260.484375 C 346.84375 260.769531 347.191406 260.917969 347.542969 260.917969 C 347.839844 260.917969 348.132812 260.816406 348.371094 260.605469 C 348.894531 260.148438 348.949219 259.351562 348.492188 258.828125 L 347.453125 257.636719 C 348.121094 257.542969 348.6875 257.464844 348.804688 257.449219 C 349.394531 257.382812 349.871094 256.902344 349.914062 256.285156 C 349.96875 255.59375 349.441406 254.988281 348.75 254.9375 C 348.625 254.929688 348.601562 254.933594 345.472656 255.363281 L 340.171875 249.28125 L 347.945312 249.25 L 350.1875 252.019531 C 350.4375 252.328125 350.800781 252.488281 351.164062 252.488281 C 351.445312 252.488281 351.726562 252.394531 351.960938 252.207031 C 352.5 251.769531 352.585938 250.976562 352.144531 250.433594 L 351.179688 249.238281 L 352.777344 249.230469 C 353.472656 249.230469 354.035156 248.660156 354.03125 247.964844 C 354.03125 247.269531 353.46875 246.710938 352.769531 246.710938" fill="#68c1ee"/></g><g id="change2_3"><path d="M 111.667969 243.765625 C 111.664062 243.765625 111.664062 243.765625 111.660156 243.765625 L 109.628906 243.773438 C 110.101562 243.050781 110.5 242.433594 110.582031 242.308594 C 111.011719 241.675781 110.949219 240.808594 110.390625 240.25 C 109.757812 239.617188 108.730469 239.617188 108.097656 240.25 C 107.984375 240.363281 107.96875 240.382812 105.757812 243.789062 L 95.246094 243.832031 L 101.226562 235.28125 L 105.59375 235.070312 C 106.488281 235.027344 107.175781 234.269531 107.132812 233.375 C 107.09375 232.484375 106.351562 231.796875 105.4375 231.835938 L 103.574219 231.925781 L 104.339844 230.828125 C 104.855469 230.09375 104.675781 229.085938 103.941406 228.570312 C 103.210938 228.058594 102.199219 228.238281 101.6875 228.972656 L 100.894531 230.101562 C 100.574219 229.253906 100.296875 228.519531 100.238281 228.371094 C 99.988281 227.65625 99.257812 227.195312 98.484375 227.308594 C 97.597656 227.433594 96.980469 228.253906 97.109375 229.140625 C 97.132812 229.308594 97.136719 229.324219 98.648438 233.3125 L 91.898438 242.964844 L 84.191406 234.125 L 85.042969 229.835938 C 85.214844 228.957031 84.644531 228.105469 83.765625 227.933594 C 82.890625 227.757812 82.039062 228.328125 81.863281 229.207031 L 81.5 231.039062 L 80.621094 230.027344 C 80.03125 229.355469 79.007812 229.285156 78.335938 229.871094 C 77.660156 230.460938 77.589844 231.484375 78.179688 232.15625 L 79.085938 233.195312 C 78.179688 233.304688 77.398438 233.398438 77.246094 233.417969 C 76.472656 233.492188 75.84375 234.113281 75.785156 234.914062 C 75.722656 235.808594 76.394531 236.582031 77.289062 236.644531 C 77.304688 236.644531 77.324219 236.648438 77.347656 236.648438 C 77.503906 236.648438 77.992188 236.59375 81.660156 236.152344 L 88.378906 243.859375 L 78.214844 243.902344 L 75.527344 240.453125 C 74.976562 239.746094 73.960938 239.621094 73.253906 240.171875 C 72.546875 240.722656 72.421875 241.738281 72.972656 242.445312 L 74.121094 243.917969 L 72.78125 243.921875 C 71.886719 243.925781 71.164062 244.65625 71.167969 245.550781 C 71.171875 246.441406 71.894531 247.164062 72.789062 247.164062 C 72.789062 247.164062 72.792969 247.164062 72.792969 247.164062 L 74.171875 247.15625 C 73.664062 247.910156 73.222656 248.5625 73.136719 248.691406 C 72.6875 249.324219 72.746094 250.207031 73.3125 250.773438 C 73.628906 251.089844 74.046875 251.246094 74.460938 251.246094 C 74.875 251.246094 75.289062 251.089844 75.605469 250.773438 C 75.710938 250.667969 75.71875 250.65625 78.09375 247.144531 L 89.007812 247.097656 L 82.960938 255.742188 L 78.394531 256.046875 C 77.5 256.105469 76.824219 256.878906 76.886719 257.769531 C 76.945312 258.660156 77.722656 259.339844 78.609375 259.277344 L 80.578125 259.148438 L 79.402344 260.832031 C 78.890625 261.5625 79.066406 262.574219 79.800781 263.085938 C 80.082031 263.285156 80.40625 263.378906 80.726562 263.378906 C 81.238281 263.378906 81.742188 263.136719 82.058594 262.6875 L 83.222656 261.023438 C 83.539062 261.820312 83.8125 262.5 83.871094 262.644531 C 84.101562 263.273438 84.707031 263.699219 85.386719 263.699219 C 85.464844 263.699219 85.539062 263.695312 85.617188 263.683594 C 86.503906 263.558594 87.117188 262.734375 86.992188 261.851562 C 86.964844 261.671875 86.960938 261.644531 85.441406 257.851562 L 92.179688 248.214844 L 99.648438 256.785156 L 98.839844 261.289062 C 98.683594 262.167969 99.269531 263.011719 100.152344 263.167969 C 100.246094 263.1875 100.34375 263.195312 100.4375 263.195312 C 101.207031 263.195312 101.890625 262.644531 102.03125 261.859375 L 102.378906 259.914062 L 103.726562 261.464844 C 104.046875 261.832031 104.496094 262.019531 104.949219 262.019531 C 105.328125 262.019531 105.707031 261.886719 106.011719 261.621094 C 106.6875 261.03125 106.757812 260.007812 106.167969 259.335938 L 104.835938 257.804688 C 105.691406 257.683594 106.417969 257.585938 106.570312 257.5625 C 107.328125 257.476562 107.941406 256.859375 108 256.070312 C 108.0625 255.179688 107.390625 254.402344 106.5 254.339844 C 106.339844 254.328125 106.308594 254.328125 102.289062 254.886719 L 95.480469 247.070312 L 105.464844 247.03125 L 108.34375 250.589844 C 108.664062 250.984375 109.132812 251.1875 109.605469 251.1875 C 109.960938 251.1875 110.324219 251.070312 110.625 250.828125 C 111.320312 250.265625 111.425781 249.246094 110.863281 248.550781 L 109.621094 247.015625 L 111.671875 247.007812 C 112.566406 247.003906 113.289062 246.273438 113.285156 245.378906 C 113.285156 244.488281 112.558594 243.765625 111.667969 243.765625" fill="#8dd2f4"/></g></g></svg>