<?xml version="1.0" encoding="UTF-8"?><svg xmlns="http://www.w3.org/2000/svg" xmlns:xlink="http://www.w3.org/1999/xlink" height="243.2" preserveAspectRatio="xMidYMid meet" version="1.0" viewBox="73.4 91.0 278.4 243.2" width="278.4" zoomAndPan="magnify"><g><g id="change1_1"><path d="M 351.792969 189.179688 L 277.195312 114.582031 L 203.679688 188.101562 L 239.085938 223.503906 L 224.757812 237.835938 L 273.949219 287.023438 L 322.429688 238.546875 L 312.425781 228.546875 L 351.792969 189.179688" fill="#68c1ee"/></g><g id="change2_1"><path d="M 221.519531 190.261719 L 146.921875 115.664062 L 73.40625 189.179688 L 106.109375 221.882812 L 90.160156 237.835938 L 139.351562 287.023438 L 187.828125 238.546875 L 180.53125 231.25 L 221.519531 190.261719" fill="#8dd2f4"/></g><g id="change3_1"><path d="M 293.230469 178.007812 L 207.464844 263.777344 L 120.4375 176.746094 L 206.203125 90.980469 L 293.230469 178.007812" fill="#2f93d3"/></g><g id="change4_1"><path d="M 294.195312 294.5 L 206.339844 294.5 C 204.683594 294.5 203.339844 295.84375 203.339844 297.5 C 203.339844 299.15625 204.683594 300.5 206.339844 300.5 L 291.066406 300.5 L 291.066406 328.222656 L 271.929688 328.222656 L 271.929688 314.96875 C 271.929688 313.3125 270.585938 311.96875 268.929688 311.96875 C 267.273438 311.96875 265.929688 313.3125 265.929688 314.96875 L 265.929688 331.222656 C 265.929688 332.878906 267.273438 334.222656 268.929688 334.222656 L 294.066406 334.222656 C 295.722656 334.222656 297.066406 332.878906 297.066406 331.222656 L 297.066406 298.320312 C 297.140625 298.058594 297.195312 297.785156 297.195312 297.5 C 297.195312 295.84375 295.851562 294.5 294.195312 294.5" fill="#a6daf5"/></g><g id="change4_2"><path d="M 348.09375 247.742188 C 348.09375 246.085938 346.75 244.742188 345.09375 244.742188 L 312.566406 244.742188 C 310.910156 244.742188 309.566406 246.085938 309.566406 247.742188 L 309.566406 268.574219 C 309.566406 270.234375 310.910156 271.574219 312.566406 271.574219 L 328.832031 271.574219 C 330.488281 271.574219 331.832031 270.234375 331.832031 268.574219 C 331.832031 266.917969 330.488281 265.574219 328.832031 265.574219 L 315.566406 265.574219 L 315.566406 250.742188 L 342.09375 250.742188 L 342.09375 282.066406 L 252.195312 282.066406 C 250.535156 282.066406 249.195312 283.410156 249.195312 285.066406 C 249.195312 286.726562 250.535156 288.066406 252.195312 288.066406 L 344.652344 288.066406 C 345.976562 288.066406 347.085938 287.203125 347.484375 286.015625 C 347.863281 285.515625 348.09375 284.898438 348.09375 284.222656 L 348.09375 247.742188" fill="#a6daf5"/></g><g id="change4_3"><path d="M 292.675781 273.84375 C 293.046875 273.347656 293.273438 272.734375 293.273438 272.066406 L 293.273438 237.277344 C 293.273438 235.621094 291.929688 234.277344 290.273438 234.277344 L 259.253906 234.277344 C 257.597656 234.277344 256.253906 235.621094 256.253906 237.277344 L 256.253906 257.144531 C 256.253906 258.804688 257.597656 260.144531 259.253906 260.144531 C 260.910156 260.144531 262.253906 258.804688 262.253906 257.144531 L 262.253906 240.277344 L 287.273438 240.277344 L 287.273438 269.871094 L 201.683594 269.871094 C 200.023438 269.871094 198.683594 271.214844 198.683594 272.871094 C 198.683594 274.53125 200.023438 275.871094 201.683594 275.871094 L 289.851562 275.871094 C 291.164062 275.871094 292.269531 275.023438 292.675781 273.84375" fill="#a6daf5"/></g></g></svg>